<?xml version="1.0" standalone="no"?>
<!DOCTYPE svg PUBLIC "-//W3C//DTD SVG 1.1//EN" "http://www.w3.org/Graphics/SVG/1.1/DTD/svg11.dtd" >
<svg xmlns="http://www.w3.org/2000/svg">
<metadata>
Created by FontForge 20120731 at Thu Jun 23 14:46:04 2016
 By admin
</metadata>
<defs>
<font id="iconfont" horiz-adv-x="1024" >
  <font-face 
    font-family="iconfont"
    font-weight="500"
    font-stretch="normal"
    units-per-em="1024"
    panose-1="2 0 6 3 0 0 0 0 0 0"
    ascent="896"
    descent="-128"
    x-height="792"
    bbox="0.941176 -127 1021.06 880.133"
    underline-thickness="50"
    underline-position="-100"
    unicode-range="U+0078-E61A"
  />
<missing-glyph horiz-adv-x="374" 
d="M34 0v682h272v-682h-272zM68 34h204v614h-204v-614z" />
    <glyph glyph-name=".notdef" horiz-adv-x="374" 
d="M34 0v682h272v-682h-272zM68 34h204v614h-204v-614z" />
    <glyph glyph-name=".null" horiz-adv-x="0" 
 />
    <glyph glyph-name="nonmarkingreturn" horiz-adv-x="341" 
 />
    <glyph glyph-name="x" unicode="x" horiz-adv-x="1001" 
d="M281 543q-27 -1 -53 -1h-83q-18 0 -36.5 -6t-32.5 -18.5t-23 -32t-9 -45.5v-76h912v41q0 16 -0.5 30t-0.5 18q0 13 -5 29t-17 29.5t-31.5 22.5t-49.5 9h-133v-97h-438v97zM955 310v-52q0 -23 0.5 -52t0.5 -58t-10.5 -47.5t-26 -30t-33 -16t-31.5 -4.5q-14 -1 -29.5 -0.5
t-29.5 0.5h-32l-45 128h-439l-44 -128h-29h-34q-20 0 -45 1q-25 0 -41 9.5t-25.5 23t-13.5 29.5t-4 30v167h911zM163 247q-12 0 -21 -8.5t-9 -21.5t9 -21.5t21 -8.5q13 0 22 8.5t9 21.5t-9 21.5t-22 8.5zM316 123q-8 -26 -14 -48q-5 -19 -10.5 -37t-7.5 -25t-3 -15t1 -14.5
t9.5 -10.5t21.5 -4h37h67h81h80h64h36q23 0 34 12t2 38q-5 13 -9.5 30.5t-9.5 34.5q-5 19 -11 39h-368zM336 498v228q0 11 2.5 23t10 21.5t20.5 15.5t34 6h188q31 0 51.5 -14.5t20.5 -52.5v-227h-327z" />
    <glyph glyph-name="uniE600" unicode="&#xe600;" 
d="M871 390q-19 0 -32.5 -13.5t-13.5 -32.5v-281q0 -44 -24 -68t-68 -24h-546q-40 0 -66 25.5t-26 66.5v543q0 41 27 66t65 25h278q19 0 32.5 13.5t13.5 32.5t-16 34.5t-35 15.5h-274q-77 0 -129.5 -53t-52.5 -134v-543q0 -81 51.5 -132t131.5 -51h546q77 0 130 52.5
t53 130.5v281q0 19 -13 32.5t-32 13.5zM994 729l-138 137q-13 14 -32 14t-32 -14l-471 -468v-1q-42 -41 -42 -100q0 -34 15 -64l-44 -44q-14 -14 -14 -32.5t13.5 -32t32.5 -13.5t32 13l45 44q30 -14 64 -14q59 0 101 41v1l470 468q14 14 14 32.5t-14 32.5zM459 260v0
q-14 -15 -36 -15t-37 15v0q-16 15 -16 36.5t16 36.5l438 437l74 -74z" />
    <glyph glyph-name="uniE601" unicode="&#xe601;" 
d="M130 -121h464q41 0 72 2.5t65.5 10t59.5 21.5t48 37t37.5 55.5t23.5 79t9 104.5q0 41 -13 83.5t-37 80.5t-65.5 62.5t-91.5 24.5q27 0 46.5 16t29.5 44t15 60.5t5 70.5q0 32 -7 64t-25.5 66t-47 60t-75 42t-104.5 16h-409v-1000zM499 769q104 0 146 -37.5t42 -100.5
q0 -34 -7.5 -58t-26 -43.5t-53.5 -29.5t-88 -10h-269v279h256zM558 380q113 0 176.5 -50t63.5 -141q0 -32 -4 -59t-9.5 -46.5t-17 -34.5t-20.5 -24.5t-26 -16.5t-28.5 -10t-32.5 -5t-33 -2h-35h-12h-337v389h315z" />
    <glyph glyph-name="uniE602" unicode="&#xe602;" horiz-adv-x="1037" 
d="M309 691h661q21 0 36 15t15 36t-15 36t-36 15h-661q-21 0 -36 -15t-15 -36t15 -36t36 -15zM309 335h203q22 0 36.5 15t14.5 36t-14.5 36t-36.5 15h-203q-21 0 -36 -15t-15 -36t15 -36t36 -15zM970 81h-661q-21 0 -36 -15t-15 -36t15 -36t36 -15h661q21 0 36 15t15 36
t-15 36t-36 15zM106 793h-51q-21 0 -36 -15t-15 -36t15 -36t36 -15h51q21 0 36 15t15 36t-15 36t-36 15zM106 437h-51q-21 0 -36 -15t-15 -36t15 -36t36 -15h51q21 0 36 15t15 36t-15 36t-36 15zM106 81h-51q-21 0 -36 -15t-15 -36t15 -36t36 -15h51q21 0 36 15t15 36
t-15 36t-36 15z" />
    <glyph glyph-name="uniE603" unicode="&#xe603;" 
d="M808 588.5q-19 18.5 -46.5 18.5t-46.5 -18l-289 -274l-121 115q-20 18 -47 18t-46 -18.5t-19 -44.5t19 -44l168 -159q19 -19 46 -19t46 19l336 318q19 18 19 44t-19 44.5z" />
    <glyph glyph-name="uniE604" unicode="&#xe604;" 
d="M907 -25h-653q-21 0 -35.5 -15t-14.5 -35.5t14.5 -35.5t35.5 -15h653q21 0 36 15t15 35.5t-15 35.5t-36 15zM984 540l-314 315q-25 25 -61.5 24.5t-62.5 -27.5l-518 -516q-26 -27 -25.5 -73.5t25.5 -71.5l167 -166h393l392 391q27 26 28 62.5t-24 61.5zM556 143l-285 284
l341 341l282 -285z" />
    <glyph glyph-name="uniE605" unicode="&#xe605;" horiz-adv-x="1037" 
d="M982 463h-56q-23 52 -71.5 84.5t-107.5 32.5q-65 0 -116 -37.5t-70 -96.5q-27 17 -50 17q-22 0 -48 -17q-20 59 -71 96.5t-115 37.5q-60 0 -108.5 -32.5t-71.5 -84.5h-55q-16 0 -27.5 -11.5t-11.5 -28t11.5 -27.5t27.5 -11h39q0 -82 57.5 -139t138.5 -57q78 0 134.5 53.5
t60.5 131.5q21 11 39 11q19 0 40 -12q5 -77 61.5 -130.5t134.5 -53.5q81 0 138 57t57 139h40q16 0 27.5 11t11.5 27.5t-11.5 28t-27.5 11.5zM276.5 267q-48.5 0 -83 34.5t-34.5 83t34.5 83t83 34.5t83 -34.5t34.5 -83t-34.5 -83t-83 -34.5zM746.5 267q-48.5 0 -83 34.5
t-34.5 83t34.5 83t83 34.5t83 -34.5t34.5 -83t-34.5 -83t-83 -34.5z" />
    <glyph glyph-name="uniE606" unicode="&#xe606;" 
d="M901 879q-23 0 -39.5 -16t-16.5 -39v-390h-668v390q0 23 -16.5 39t-39.5 16t-39.5 -16t-16.5 -39v-892q0 -23 16.5 -39.5t39.5 -16.5t39.5 16.5t16.5 39.5v390h668v-390q0 -23 16.5 -39.5t39.5 -16.5t39.5 16.5t16.5 39.5v892q0 23 -16.5 39t-39.5 16z" />
    <glyph glyph-name="uniE607" unicode="&#xe607;" 
d="M733 -12h-167v780h56q23 0 39.5 16.5t16.5 39.5t-16.5 39t-39.5 16h-223q-23 0 -39 -16t-16 -39t16 -39.5t39 -16.5h56v-780h-167q-23 0 -39.5 -16.5t-16.5 -39.5t16.5 -39t39.5 -16h445q24 0 40 16t16 39t-16 39.5t-40 16.5z" />
    <glyph glyph-name="uniE608" unicode="&#xe608;" horiz-adv-x="1037" 
d="M1021 45q0 61 -12 125.5t-35.5 127.5t-57 122t-79 108.5t-98 87t-117.5 57t-135 19.5t-152.5 -26.5t-167.5 -80.5l-56 138q0 22 -15.5 38t-38.5 16t-39 -16t-16 -39v-404q-1 -45 31 -76.5t77 -31.5h404q23 1 39 17t16 38.5t-16 38.5t-39 15l-142 59q66 36 126.5 49.5
t107.5 6.5t88 -27.5t71 -51.5t54.5 -68t40.5 -74.5t26.5 -72.5t15 -61t4.5 -40q1 -25 18.5 -41t41.5 -14.5t40 19.5t15 42z" />
    <glyph glyph-name="uniE609" unicode="&#xe609;" horiz-adv-x="1036" 
d="M60 440h903q24 0 40.5 -16.5t16.5 -40t-16.5 -40t-40.5 -16.5h-903q-24 0 -40.5 16.5t-16.5 40t16.5 40t40.5 16.5z" />
    <glyph glyph-name="uniE60A" unicode="&#xe60a;" 
d="M966 706l-133 132q-41 42 -99 42q-60 0 -99 -42l-212 -212q-41 -41 -41 -99q0 -14 3 -28q-13 4 -28 4q-58 0 -99 -42l-212 -211q-41 -42 -41 -100t41 -99l133 -133q41 -41 99 -41q60 0 99 41l212 212q26 26 36 60t2 67q13 -3 28 -3q58 0 99 41l212 212q41 41 41 99
q0 60 -41 100zM522 195l-212 -212q-13 -13 -33 -13t-32 13l-133 133q-13 13 -13 33t13 34l212 212q13 13 33 13t34 -13l33 -34l-116 -116q-13 -13 -13 -32.5t13.5 -33t33.5 -13.5t33 13l116 116l33 -33q12 -14 11.5 -33.5t-13.5 -33.5zM900 573l-212 -212q-13 -13 -33 -13
t-32 13l-34 34l116 115q13 14 13 33.5t-13 33t-32.5 13.5t-33.5 -14l-116 -116l-33 34q-13 13 -13 33t13 34l212 211q13 14 33 14t34 -14l132 -132q14 -14 14 -34q-2 -20 -15 -33z" />
    <glyph glyph-name="uniE60B" unicode="&#xe60b;" horiz-adv-x="1036" 
d="M1 46q0 61 12 125.5t35.5 127.5t57 122.5t79 108.5t98 87t117.5 57t135 19.5t152 -26.5t168 -80l55 137q0 23 16 38.5t38.5 15.5t38.5 -16t17 -39v-403q0 -45 -31.5 -77t-76.5 -32l-404 1q-23 0 -39 16t-16 38.5t16 38.5t38 16l143 58q-66 36 -126.5 49.5t-107.5 7
t-88 -27.5t-71 -52t-54.5 -68t-40.5 -74.5t-26.5 -72.5t-15 -60.5t-4.5 -40.5q-1 -24 -18.5 -40.5t-41.5 -15t-40 19.5t-15 42z" />
    <glyph glyph-name="uniE60C" unicode="&#xe60c;" 
d="M993 282q-22 18 -47 4q-88 -49 -190 -49q-105 0 -195 52.5t-142.5 142.5t-52.5 195q0 102 49 190q14 25 -4 47t-45 14q-162 -50 -262 -185t-100 -305q0 -104 41 -199t109.5 -163.5t163.5 -109.5t199 -41q170 0 305 100t185 262q8 27 -14 45zM756 123q32 0 62 4
q-56 -66 -134.5 -102t-166.5 -36q-108 0 -200 53.5t-145.5 145.5t-53.5 200q0 88 36 166.5t102 134.5q-4 -31 -4 -62q0 -102 40 -195.5t107.5 -161t161 -107.5t195.5 -40z" />
    <glyph glyph-name="uniE60D" unicode="&#xe60d;" horiz-adv-x="1036" 
d="M374 658h600q19 0 32.5 13.5t13.5 32.5t-13.5 32.5t-32.5 13.5h-600q-19 0 -32.5 -13.5t-13.5 -32.5t13.5 -32.5t32.5 -13.5zM974 427h-600q-19 0 -32.5 -13.5t-13.5 -32.5t13.5 -32.5t32.5 -13.5h600q19 0 32.5 13.5t13.5 32.5t-13.5 32.5t-32.5 13.5zM974 104h-600
q-19 0 -32.5 -13.5t-13.5 -32.5t13.5 -32.5t32.5 -13.5h600q19 0 32.5 13.5t13.5 32.5t-13.5 32.5t-32.5 13.5zM277 170v0v1q-13 26 -41 26h-139q-19 0 -32.5 -14t-13.5 -33t13.5 -32.5t32.5 -13.5h81l-23 -92h-104q-19 0 -32.5 -13.5t-13.5 -32.5t13.5 -32.5t32.5 -13.5
h138q20 0 33.5 13.5t13.5 32.5l40 163q6 10 6 21v0q0 11 -5 20zM143 612q19 0 32.5 13.5t13.5 32.5v138q0 20 -13.5 33.5t-32.5 13.5t-32.5 -13.5t-13.5 -33.5v-138q0 -19 13.5 -32.5t32.5 -13.5zM21 297q11 -8 24 -8h6h138q20 0 33.5 13.5t13.5 32.5t-13.5 32.5t-33.5 13.5
h-48l84 105q12 18 10.5 39t-15.5 32q-10 8 -23 8q-4 1 -8 1h-92q-19 0 -32.5 -13.5t-13.5 -33t13.5 -33t32.5 -13.5h4l-84 -105q-3 -4 -6 -9q-6 -11 -6 -24q0 -5 1 -10q3 -18 15 -28z" />
    <glyph glyph-name="uniE60E" unicode="&#xe60e;" 
d="M807 879h-602q-91 0 -146 -56.5t-55 -143.5v-603q0 -97 51.5 -149t149.5 -52h603q91 0 145.5 56t54.5 145v603q0 92 -55.5 146t-145.5 54zM205 -26q-51 0 -76.5 29t-25.5 73v77l226 213q10 10 24.5 10t26.5 -11l404 -391h-579zM907 76q0 -12 -2 -41t-4 -33l-228 221
l84 83q9 10 24.5 10t25.5 -10l100 -100v-130zM908 348l-30 30q-39 40 -96 40t-96 -40l-85 -85l-150 145q-40 40 -96.5 40t-94.5 -39l-155 -147v386q0 45 27.5 73t72.5 28h603q41 0 70.5 -29.5t29.5 -70.5v-331zM631 628q-31 0 -53 -22.5t-22 -53.5t22 -53t53 -22t53 22
t22 53t-22 53.5t-53 22.5z" />
    <glyph glyph-name="uniE60F" unicode="&#xe60f;" horiz-adv-x="1035" 
d="M866 840h-710q-62 0 -107 -45t-45 -107v-609q0 -63 45 -108t107 -45h711q62 0 107 45t45 108v609q0 62 -45 107t-108 45zM156 27q-22 1 -37 15.5t-15 36.5v129l228 214q10 11 25.5 11t26.5 -12l408 -394h-636zM916 79q0 -15 -6 -25l-230 224l84 84q10 10 25.5 10
t25.5 -10l101 -101v-182zM918 404l-31 30q-39 41 -96.5 41t-97.5 -41l-86 -85l-152 146q-40 40 -97 40.5t-96 -39.5l-157 -148v339q0 21 14.5 36t36.5 15h711q21 0 36 -14.5t15 -35.5v-284zM574.5 661q-28.5 0 -48.5 -20t-20 -48t20 -48t48.5 -20t48.5 20t20 48t-20 48
t-48.5 20z" />
    <glyph glyph-name="uniE610" unicode="&#xe610;" 
d="M764 880h-503q-42 0 -71.5 -29.5t-29.5 -71.5v-805q0 -42 29.5 -71.5t71.5 -29.5h503q42 0 71.5 29.5t29.5 71.5v805q0 42 -29.5 71.5t-71.5 29.5zM512.5 -26q-20.5 0 -35.5 14.5t-15 35.5t15 36t35.5 15t35.5 -15t15 -36t-15 -35.5t-35.5 -14.5zM764 175h-503v604h503
v-604z" />
    <glyph glyph-name="uniE611" unicode="&#xe611;" horiz-adv-x="1035" 
d="M342 710h-136l-204 -261v-394h394v394h-189zM824 449l130 261h-131l-198 -261v-394h394v394h-195z" />
    <glyph glyph-name="uniE612" unicode="&#xe612;" horiz-adv-x="1035" 
d="M918 483h-202q2 26 5.5 40.5t13.5 34t30 37.5t52 39q19 13 24 32t-2 37t-22 32q-25 22 -101 -50l-38 -37q-9 -10 -31 -34.5t-30 -37.5t-21.5 -37t-18.5 -45t-9.5 -49.5t-4.5 -60.5v-271q0 -35 26.5 -60t63.5 -25h277q36 0 62 25t26 60l1 269q0 34 -33 67.5t-68 33.5z
M918 179q0 -21 -15 -35.5t-36 -14.5h-151q-21 0 -36 14.5t-15 35.5v152q0 21 15 36t36 15h151q21 0 36 -15t15 -36v-152zM362 483h-202q2 26 5.5 40.5t13.5 34t29.5 37.5t52.5 39q19 13 24 32t-2 37t-22 32q-25 22 -101 -50l-11 -11q-33 -32 -48 -48.5t-37 -46t-32 -54
t-17.5 -61t-7.5 -80.5v-271q0 -35 26 -60t64 -25h277q36 0 62 25t26 60l1 269q0 34 -33 67.5t-68 33.5zM362 179q0 -21 -15 -35.5t-36 -14.5h-151q-21 0 -36 14.5t-15 35.5v152q0 21 15 36t36 15h151q21 0 36 -15t15 -36v-152z" />
    <glyph glyph-name="uniE613" unicode="&#xe613;" horiz-adv-x="1037" 
d="M196 283h145v-195h98v444h145v-444h97v681h146v-676h97v671q0 59 -23 80.5t-87 21.5h-123q-56 0 -81.5 -22t-25.5 -79v-142h-147q-51 0 -73.5 -21t-22.5 -70v-152h-148q-49 0 -71.5 -24.5t-22.5 -76.5v-191l97 1v194zM972 -8h-922q-20 0 -34.5 -14.5t-14.5 -34.5
t14.5 -34.5t34.5 -14.5h922q21 0 35 14.5t14 34.5t-14.5 34.5t-34.5 14.5z" />
    <glyph glyph-name="uniE614" unicode="&#xe614;" horiz-adv-x="1037" 
d="M330 415q-10 10 -25 12t-27 -6q-5 -3 -62 -60q-6 80 28.5 152.5t100.5 118.5q74 51 166 51.5t167 -50.5q6 -4 15 -12t15 -12.5t16 -10t17 -5t19 3.5q20 8 24 30t-10 38q-29 31 -89 62q-42 22 -92 33q-85 19 -171 -2t-153 -77q-63 -53 -99.5 -127.5t-38.5 -155.5
q-1 -18 0 -39l-38 38q-1 1 -5.5 6t-6 6t-6.5 5.5t-6.5 5t-6.5 4t-7 2.5t-8 1t-9 0q-26 -5 -33 -30t11 -43l21 -21l37 -37l24 -24q28 -29 46 -36q24 -8 48 -2t42 24q96 95 101 103q9 12 7.5 27.5t-12.5 26.5zM1009 415q-99 100 -101 101q-19 17 -44 21t-47 -7
q-18 -8 -121 -113q-14 -14 -14 -33t16 -33q11 -9 25.5 -9t25.5 8q3 2 59 59q6 -79 -27.5 -151t-97.5 -118q-76 -54 -170 -54t-171 53q-5 4 -12 10t-12 10.5t-12.5 9t-14 6.5t-14 1.5t-15.5 -4.5q-21 -11 -22.5 -33.5t14.5 -37.5q74 -71 185 -94q84 -17 169 5.5t151 78.5
q61 53 96.5 126.5t38.5 154.5q0 17 -1 39l53 -54q12 -12 27 -14.5t30 7.5q16 11 17.5 31t-11.5 34z" />
    <glyph glyph-name="uniE615" unicode="&#xe615;" 
d="M962 45l-77 502q-8 56 -52 94t-102 38h-12v50q0 82 -49.5 116t-158.5 34q-207 0 -207 -150v-50h-13q-58 0 -102 -38t-51 -94q-44 -321 -65 -415q-1 -2 -1 -4h-1l-11 -83q-9 -68 37.5 -118.5t116.5 -50.5h594q70 0 116.5 50.5t37.5 118.5zM407 729q0 29 21.5 43t81.5 14
q61 0 83 -14t22 -43v-50h-208v50zM291 578h13v-100q0 -21 15 -35.5t36.5 -14.5t36.5 14.5t15 35.5v100h208v-100q0 -21 15.5 -35.5t36.5 -14.5t36.5 14.5t15.5 35.5v100h12q19 0 34 -12.5t17 -31.5l55 -357h-653l56 357q3 19 17.5 31.5t33.5 12.5zM847 -7q-15 -17 -39 -17
h-594q-23 0 -39 17q-17 19 -15 33l8 52q6 -2 11 -2h674l6 -44q3 -22 -12 -39z" />
    <glyph glyph-name="uniE616" unicode="&#xe616;" 
d="M923 251l-162 84q-30 15 -65 10.5t-60 -27.5l-19 -17q-13 -13 -32.5 -15.5t-36.5 5.5q-85 44 -128 129q-9 17 -6.5 36t15.5 33l18 19q28 31 28 74q0 26 -12 50l-83 162q-21 40 -58 63t-82 23q-53 0 -95 -33l-49 -37q-58 -45 -80 -115t1 -139q75 -232 247 -408.5
t402 -257.5q37 -14 76 -14q97 0 165 69l56 57q45 46 45 110q0 44 -22.5 81.5t-62.5 57.5zM896 68l-56 -57q-28 -28 -67 -37t-76 4q-209 74 -366 235t-225 372q-13 41 0 82.5t47 67.5l49 38q17 13 38 13q39 0 56 -35l84 -162q1 -3 1 -7q0 -6 -4 -11l-17 -19
q-33 -35 -39.5 -83.5t15.5 -91.5q58 -112 169 -169q42 -22 91.5 -15.5t84.5 39.5l19 17q8 7 18 2l162 -83q34 -18 34 -56q0 -25 -18 -44zM619 788q125 1 212 -86t86 -212q0 -18 13 -31.5t32 -13t32.5 14t13.5 31.5q0 79 -29 150t-83.5 125.5t-125.5 83.5t-150 29
q-18 0 -31.5 -13.5t-14 -32t13 -32t31.5 -13.5zM606 607q56 5 95.5 -34.5t34.5 -95.5q-2 -19 10 -33t30 -16q21 -1 36 14q12 11 14 28q4 47 -11.5 91t-48.5 76.5t-76.5 48t-90.5 11.5q-17 -2 -28 -13q-15 -16 -14 -36q2 -19 16 -31t33 -10z" />
    <glyph glyph-name="uniE617" unicode="&#xe617;" horiz-adv-x="1037" 
d="M971 615h-354q-21 0 -35.5 -15t-14.5 -36t14.5 -36t35.5 -15h354q21 0 35.5 15t14.5 36t-14.5 36t-35.5 15zM971 258h-354q-21 0 -35.5 -15t-14.5 -36.5t14.5 -36t35.5 -14.5h354q21 0 35.5 14.5t14.5 36t-14.5 36.5t-35.5 15zM971 54h-354q-21 0 -35.5 -15t-14.5 -36
t14.5 -36t35.5 -15h354q21 0 35.5 15t14.5 36t-14.5 36t-35.5 15zM323 806l-179 -173l-55 53q-15 14 -36 14t-35.5 -14t-14.5 -34.5t15 -34.5l91 -88l8 -6q15 -10 33 -8t30 14v0l214 208q15 14 15 34.5t-15 34.5t-35.5 14t-35.5 -14zM617 717h354q21 0 35.5 14.5t14.5 36
t-14.5 36t-35.5 14.5h-354q-21 0 -35.5 -14.5t-14.5 -36t14.5 -36t35.5 -14.5zM155 211q-42 0 -72 -29.5t-30 -71.5t30 -72t72 -30t72 30t30 72t-30 71.5t-72 29.5z" />
    <glyph glyph-name="uniE618" unicode="&#xe618;" 
d="M807 880h-603q-104 0 -152.5 -49t-48.5 -152v-603q0 -89 57.5 -145t143.5 -56h603q87 0 144 57.5t57 143.5v603q0 82 -56.5 141.5t-144.5 59.5zM908 76q0 -49 -27 -75t-74 -26h-603q-45 0 -72.5 27t-27.5 74v603q0 49 26 74.5t74 25.5h603q48 0 74.5 -28t26.5 -72v-603z
M631 425l-125 91q-17 12 -38 12q-15 0 -28 -7q-35 -16 -35 -54v-180q0 -38 35 -54q13 -7 28 -7q21 0 38 12l125 91q25 18 25 48t-25 48z" />
    <glyph glyph-name="uniE619" unicode="&#xe619;" horiz-adv-x="1037" 
d="M933 554l-178 -89v89q0 36 -25.5 62t-62.5 26h-576q-36 0 -62 -26t-26 -62v-487q0 -37 26 -63t62 -26h576q37 0 62.5 26t25.5 63v88l178 -88q33 -17 60.5 -3t27.5 50v385q0 37 -26 54t-62 1zM667 67h-576v487h576v-487zM933 155l-178 89v133l178 88v-310zM180 686h398
q19 0 32 13t13 31.5t-13 31.5t-32 13h-398q-18 0 -31 -13t-13 -31.5t13 -31.5t31 -13z" />
    <glyph glyph-name="uniE61A" unicode="&#xe61a;" 
d="M912 227v-50q0 -64 -42 -107t-108 -43h-201v-51h100q21 0 36 -14.5t15 -35t-15 -35.5t-36 -15h-301q-20 0 -35 15t-15 35.5t15 35t35 14.5h101v51h-201q-61 0 -106 44.5t-45 105.5v50q0 21 15 35.5t35.5 14.5t35.5 -14.5t15 -35.5v-11q0 -6 2.5 -23.5t6.5 -30.5t14 -24
t24 -11h500q15 0 26.5 11t16.5 24t8 30.5t3.5 24t0.5 10.5q0 21 14.5 35.5t35.5 14.5t35.5 -14.5t14.5 -35.5zM762 629v-201q0 -104 -73.5 -177.5t-177.5 -73.5t-177.5 73.5t-73.5 177.5v201q0 104 73.5 177.5t177.5 73.5t177.5 -73.5t73.5 -177.5zM661 428v201
q0 62 -44 106t-106 44q-49 0 -87.5 -28t-54.5 -72h41q21 0 36 -15t15 -35.5t-15 -35t-36 -14.5h-50v-51h50q21 0 36 -14.5t15 -35.5t-15 -35.5t-36 -14.5h-50q0 -62 44 -106.5t106.5 -44.5t106.5 44.5t44 106.5z" />
  </font>
</defs>
</svg>
